<svg xmlns="http://www.w3.org/2000/svg" xmlns:xlink="http://www.w3.org/1999/xlink" fill="none" version="1.1" width="209.4755859375" height="210.0242919921875" viewBox="0 0 209.4755859375 210.0242919921875"><defs><linearGradient x1="0.5" y1="0" x2="0.5" y2="1" id="master_svg0_3_1206"><stop offset="0%" stop-color="#3662EC" stop-opacity="1"/><stop offset="100%" stop-color="#07B9B9" stop-opacity="1"/></linearGradient></defs><g style="mix-blend-mode:passthrough"><g style="mix-blend-mode:passthrough" transform="matrix(0.9929344058036804,-0.11844220757484436,0.11648712307214737,0.9932177662849426,-2.5519772324374514,0.44571782666866966)"><path d="M130.127,67.00244442749023Q130.385,67.33934442749023,130.727,67.59114442749024Q131.069,67.84304442749024,131.468,67.99004442749023L180.627,86.12894442749024Q180.706,86.15824442749023,180.784,86.19194442749023Q180.862,86.22564442749024,180.937,86.26374442749024Q181.013,86.30174442749023,181.086,86.34394442749023Q181.159,86.38614442749024,181.23,86.43244442749024Q181.301,86.47874442749024,181.369,86.52894442749023Q181.437,86.57914442749023,181.502,86.63314442749024Q181.567,86.68704442749024,181.629,86.74464442749023Q181.691,86.80214442749023,181.75,86.86304442749024Q181.809,86.92404442749023,181.864,86.98814442749024Q181.919,87.05234442749024,181.97,87.11954442749024Q182.022,87.18664442749024,182.069,87.25664442749023Q182.117,87.32654442749023,182.161,87.39904442749024Q182.204,87.47164442749023,182.243,87.54644442749023Q182.283,87.62134442749023,182.318,87.69824442749024Q182.353,87.77524442749024,182.384,87.85404442749024Q182.414,87.93284442749024,182.441,88.01324442749024Q182.467,88.09364442749023,182.489,88.17544442749023Q182.51,88.25724442749024,182.527,88.34004442749024Q182.544,88.42294442749024,182.557,88.50664442749023Q182.569,88.59034442749024,182.577,88.67454442749023Q182.584,88.75884442749023,182.587,88.84334442749024Q182.59,88.92794442749023,182.588,89.01244442749024Q182.586,89.09704442749023,182.579,89.18134442749023Q182.572,89.26564442749023,182.561,89.34944442749024Q182.55,89.43324442749024,182.533,89.51634442749024Q182.517,89.59934442749024,182.496,89.68134442749023Q182.476,89.76334442749024,182.45,89.84404442749023Q182.425,89.92474442749024,182.395,90.00384442749024Q182.365,90.08294442749023,182.331,90.16024442749024Q182.296,90.23764442749024,182.258,90.31284442749023Q182.219,90.38814442749023,182.176,90.46104442749024Q182.134,90.53404442749023,182.087,90.60454442749024L152.777,134.68844442749025Q152.545,135.03644442749024,152.418,135.43344442749023Q152.291,135.83144442749023,152.277,136.24844442749023L150.49,189.37344442749023Q150.487,189.45844442749024,150.479,189.54444442749025Q150.471,189.62944442749023,150.459,189.71344442749023Q150.446,189.79844442749024,150.429,189.88144442749024Q150.412,189.96544442749024,150.389,190.04744442749023Q150.367,190.13044442749023,150.341,190.21144442749022Q150.314,190.29244442749024,150.283,190.37144442749025Q150.251,190.45144442749023,150.216,190.52844442749023Q150.18,190.60644442749023,150.14,190.68144442749025Q150.1,190.75744442749024,150.055,190.83044442749022Q150.011,190.90344442749023,149.963,190.97344442749022Q149.914,191.04444442749025,149.862,191.11144442749023Q149.809,191.17844442749023,149.753,191.24344442749023Q149.697,191.30744442749022,149.638,191.36844442749023Q149.578,191.42944442749024,149.515,191.48744442749023Q149.452,191.54544442749022,149.386,191.59944442749023Q149.319,191.65344442749023,149.25,191.70344442749024Q149.181,191.75344442749022,149.109,191.79944442749024Q149.037,191.84544442749024,148.963,191.88744442749024Q148.888,191.92944442749024,148.812,191.96644442749025Q148.735,192.00444442749023,148.656,192.03744442749024Q148.577,192.07044442749023,148.497,192.09944442749023Q148.417,192.12744442749025,148.335,192.15144442749025Q148.253,192.17544442749025,148.169,192.19544442749023Q148.086,192.21444442749024,148.002,192.22844442749025Q147.918,192.24344442749023,147.833,192.25344442749022Q147.748,192.26244442749024,147.663,192.26744442749023Q147.578,192.27244442749023,147.492,192.27244442749023Q147.407,192.27244442749023,147.322,192.26744442749023Q147.236,192.26344442749024,147.152,192.25344442749022Q147.067,192.24344442749023,146.982,192.22944442749022Q146.898,192.21444442749024,146.815,192.19544442749023Q146.732,192.17644442749022,146.65,192.15244442749022L96.4646,177.48944442749024Q96.0525,177.36844442749023,95.6232,177.36844442749023Q95.1939,177.36844442749023,94.7819,177.48944442749024L44.5965,192.15244442749022Q44.5146,192.17644442749022,44.4314,192.19544442749023Q44.3481,192.21444442749024,44.264,192.22944442749022Q44.1798,192.24344442749023,44.095,192.25344442749022Q44.0101,192.26344442749024,43.9248,192.26744442749023Q43.8396,192.27244442749023,43.7542,192.27244442749023Q43.6688,192.27244442749023,43.5835,192.26744442749023Q43.4983,192.26244442749024,43.4134,192.25344442749022Q43.3286,192.24344442749023,43.2444,192.22844442749025Q43.1602,192.21444442749024,43.077,192.19544442749023Q42.9939,192.17544442749025,42.9119,192.15144442749025Q42.8299,192.12744442749025,42.7495,192.09944442749023Q42.669,192.07044442749023,42.5903,192.03744442749024Q42.5116,192.00444442749023,42.4349,191.96644442749025Q42.3582,191.92944442749024,42.2838,191.88744442749024Q42.2094,191.84544442749024,42.1374,191.79944442749024Q42.0655,191.75344442749022,41.9963,191.70344442749024Q41.9271,191.65344442749023,41.8609,191.59944442749023Q41.7947,191.54544442749022,41.7316,191.48744442749023Q41.6686,191.42944442749024,41.6089,191.36844442749023Q41.5492,191.30744442749022,41.4931,191.24344442749023Q41.4371,191.17844442749023,41.3847,191.11144442749023Q41.3324,191.04444442749025,41.2839,190.97344442749022Q41.2355,190.90344442749023,41.1912,190.83044442749022Q41.1468,190.75744442749024,41.1067,190.68144442749025Q41.0666,190.60644442749023,41.0308,190.52844442749023Q40.9951,190.45144442749023,40.9638,190.37144442749025Q40.9325,190.29244442749024,40.9058,190.21144442749022Q40.8791,190.13044442749023,40.857,190.04744442749023Q40.8349,189.96544442749024,40.8176,189.88144442749024Q40.8003,189.79844442749024,40.7877,189.71344442749023Q40.7752,189.62944442749023,40.7674,189.54444442749025Q40.7597,189.45844442749024,40.7569,189.37344442749023L38.97,136.24844442749023Q38.9559,135.83144442749023,38.8285,135.43344442749023Q38.701,135.03644442749024,38.4699,134.68844442749025L9.15967,90.60454442749024Q9.112829999999999,90.53404442749023,9.070039999999999,90.46114442749024Q9.02725,90.38814442749023,8.98864,90.31284442749023Q8.95003,90.23764442749024,8.91572,90.16034442749023Q8.881409999999999,90.08294442749023,8.85152,90.00384442749024Q8.82162,89.92474442749024,8.796230000000001,89.84404442749023Q8.77084,89.76334442749024,8.750029999999999,89.68134442749023Q8.729230000000001,89.59934442749024,8.71308,89.51634442749024Q8.69693,89.43324442749024,8.68548,89.34944442749024Q8.67403,89.26564442749023,8.66733,89.18134442749023Q8.66062,89.09704442749023,8.65868,89.01244442749024Q8.65673,88.92794442749023,8.659559999999999,88.84334442749024Q8.662379999999999,88.75884442749023,8.66996,88.67454442749023Q8.67755,88.59034442749024,8.68986,88.50664442749023Q8.70218,88.42294442749024,8.7192,88.34004442749024Q8.73621,88.25724442749024,8.75787,88.17544442749023Q8.77952,88.09364442749023,8.80575,88.01324442749024Q8.83198,87.93284442749024,8.8627,87.85404442749024Q8.893419999999999,87.77524442749024,8.92853,87.69824442749024Q8.96364,87.62134442749023,9.003029999999999,87.54644442749023Q9.04242,87.47164442749023,9.08597,87.39904442749024Q9.12952,87.32654442749023,9.17708,87.25664442749023Q9.22464,87.18664442749024,9.27607,87.11954442749024Q9.3275,87.05234442749024,9.38264,86.98814442749024Q9.43777,86.92404442749023,9.49643,86.86304442749024Q9.55509,86.80214442749023,9.617090000000001,86.74464442749023Q9.67909,86.68704442749024,9.74423,86.63314442749024Q9.80938,86.57914442749023,9.87746,86.52894442749023Q9.945540000000001,86.47874442749024,10.01634,86.43244442749024Q10.08714,86.38614442749024,10.160440000000001,86.34394442749023Q10.233730000000001,86.30174442749023,10.30929,86.26374442749024Q10.38485,86.22564442749024,10.46244,86.19194442749023Q10.54002,86.15824442749023,10.61938,86.12894442749024L59.7787,67.99004442749023Q60.1771,67.84304442749024,60.5191,67.59114442749024Q60.8611,67.33934442749023,61.1198,67.00244442749023L93.2436,25.159044427490233Q93.2959,25.090904427490234,93.3521,25.025864427490234Q93.4082,24.960834427490234,93.4679,24.899114427490233Q93.5277,24.837404427490235,93.5909,24.779204427490235Q93.6541,24.721014427490235,93.7205,24.666524427490234Q93.7869,24.612044427490233,93.8563,24.561444427490233Q93.9257,24.510854427490234,93.9979,24.464314427490233Q94.0701,24.417774427490233,94.1449,24.375444427490233Q94.2196,24.333114427490234,94.2967,24.295124427490233Q94.3737,24.257144427490235,94.4528,24.223624427490236Q94.5319,24.190114427490233,94.6128,24.161184427490234Q94.6937,24.132254427490235,94.7761,24.107994427490233Q94.8585,24.083734427490235,94.9422,24.064234427490234Q95.0258,24.044734427490233,95.1105,24.030054427490235Q95.1951,24.015364427490233,95.2804,24.005554427490235Q95.3658,23.995734427490234,95.4516,23.990824427490235Q95.5373,23.985904427490233,95.6232,23.985904427490233Q95.7091,23.985904427490233,95.7949,23.990824427490235Q95.8807,23.995734427490234,95.966,24.005554427490235Q96.0513,24.015364427490233,96.136,24.030054427490235Q96.2206,24.044734427490233,96.3043,24.064234427490234Q96.3879,24.083734427490235,96.4704,24.107994427490233Q96.5527,24.132254427490235,96.6336,24.161184427490234Q96.7145,24.190114427490233,96.7936,24.223624427490236Q96.8727,24.257144427490235,96.9498,24.295124427490233Q97.0268,24.333114427490234,97.1016,24.375444427490233Q97.1763,24.417774427490233,97.2485,24.464314427490233Q97.3207,24.510854427490234,97.3901,24.561444427490233Q97.4596,24.612044427490233,97.526,24.666524427490234Q97.5924,24.721014427490235,97.6556,24.779204427490235Q97.7188,24.837404427490235,97.7785,24.899114427490233Q97.8383,24.960834427490234,97.8944,25.025864427490234Q97.9505,25.090904427490234,98.0028,25.159044427490233L130.127,67.00244442749023Z" fill="url(#master_svg0_3_1206)" fill-opacity="1"/></g><g style="mix-blend-mode:passthrough"><g style="mix-blend-mode:passthrough"><path d="M84.8956,98.78905201446533L53.3124,107.16188201446533L47.9455,90.94202101446533L50.319,90.15668201446533L51.0207,92.55616201446533L27.1113,99.54899201446533L3.201778,106.54178201446533L1.798222,101.74288201446534L25.7077,94.75002201446533L51.9341,87.07957201446533L57.3201,103.35698201446533L54.9466,104.14228201446534L54.306,101.72578201446534L83.6144,93.95600201446533L84.8956,98.78905201446533ZM86.755,96.37252201446533Q86.755,96.49534201446534,86.743,96.61757201446534Q86.7309,96.73979201446534,86.707,96.86025201446533Q86.683,96.98071201446533,86.6474,97.09824201446533Q86.6117,97.21576201446533,86.5647,97.32923201446533Q86.5177,97.44270201446533,86.4598,97.55102201446533Q86.4019,97.65933201446533,86.3337,97.76145201446533Q86.2654,97.86357201446533,86.1875,97.95851201446533Q86.1096,98.05345201446534,86.0228,98.14029201446533Q85.9359,98.22713201446533,85.841,98.30505201446533Q85.746,98.38296201446533,85.6439,98.45120201446534Q85.5418,98.51943201446534,85.4335,98.57733201446533Q85.3252,98.63522201446533,85.2117,98.68222201446534Q85.0983,98.72922201446534,84.9807,98.76488201446533Q84.8632,98.80053201446533,84.7427,98.82449201446533Q84.6223,98.84845201446534,84.5001,98.86049201446534Q84.3778,98.87252201446533,84.255,98.87252201446533Q84.1322,98.87252201446533,84.01,98.86049201446534Q83.8877,98.84845201446534,83.7673,98.82449201446533Q83.6468,98.80053201446533,83.5293,98.76487201446534Q83.4118,98.72922201446534,83.2983,98.68222201446534Q83.1848,98.63522201446533,83.0765,98.57733201446533Q82.9682,98.51943201446534,82.8661,98.45120201446534Q82.764,98.38296201446533,82.669,98.30505201446533Q82.5741,98.22713201446533,82.4872,98.14029201446533Q82.4004,98.05345201446534,82.3225,97.95851201446533Q82.2446,97.86357201446533,82.1763,97.76145201446533Q82.1081,97.65933201446533,82.0502,97.55101201446533Q81.9923,97.44270201446533,81.9453,97.32923201446533Q81.8983,97.21576201446533,81.8626,97.09824201446533Q81.827,96.98071201446533,81.803,96.86025201446533Q81.7791,96.73979201446534,81.767,96.61757201446534Q81.755,96.49534201446534,81.755,96.37252201446533Q81.755,96.24971201446533,81.767,96.12748201446533Q81.7791,96.00526201446533,81.803,95.88480201446534Q81.827,95.76434201446533,81.8626,95.64681201446533Q81.8983,95.52928201446534,81.9453,95.41581201446533Q81.9923,95.30235201446533,82.0502,95.19403201446534Q82.1081,95.08572201446533,82.1763,94.98360201446533Q82.2446,94.88148201446533,82.3225,94.78654201446533Q82.4004,94.69160201446533,82.4872,94.60476201446534Q82.5741,94.51791201446534,82.669,94.44000201446534Q82.764,94.36208201446533,82.8661,94.29385201446533Q82.9682,94.22562201446533,83.0765,94.16772201446533Q83.1848,94.10983201446533,83.2983,94.06283201446533Q83.4118,94.01583201446533,83.5293,93.98017201446534Q83.6468,93.94452201446533,83.7673,93.92056201446533Q83.8877,93.89660201446533,84.01,93.88456201446533Q84.1322,93.87252201446533,84.255,93.87252201446533Q84.3778,93.87252201446533,84.5001,93.88456201446533Q84.6223,93.89660201446533,84.7427,93.92056201446533Q84.8632,93.94452201446533,84.9807,93.98017201446534Q85.0983,94.01583201446533,85.2117,94.06282201446533Q85.3252,94.10983201446533,85.4335,94.16772201446533Q85.5418,94.22562201446533,85.6439,94.29385201446533Q85.746,94.36208201446533,85.841,94.44000201446534Q85.9359,94.51791201446534,86.0228,94.60476201446534Q86.1096,94.69160201446533,86.1875,94.78654201446533Q86.2654,94.88148201446533,86.3337,94.98360201446533Q86.4019,95.08572201446533,86.4598,95.19403201446534Q86.5177,95.30235201446533,86.5647,95.41581201446533Q86.6117,95.52928201446534,86.6474,95.64681201446533Q86.683,95.76434201446533,86.707,95.88480201446534Q86.7309,96.00526201446533,86.743,96.12748201446533Q86.755,96.24971201446533,86.755,96.37252201446533ZM5,104.14228201446534Q5,104.26518201446532,4.98796,104.38738201446533Q4.97592,104.50958201446534,4.95196,104.63008201446533Q4.928,104.75048201446533,4.89235,104.86808201446533Q4.8567,104.98558201446534,4.809699999999999,105.09908201446532Q4.762700000000001,105.21248201446534,4.7048000000000005,105.32078201446534Q4.64691,105.42918201446534,4.57867,105.53128201446533Q4.51044,105.63338201446533,4.43253,105.72828201446534Q4.35461,105.82328201446533,4.2677700000000005,105.91008201446533Q4.18092,105.99698201446533,4.08598,106.07488201446533Q3.99104,106.15278201446533,3.88893,106.22098201446533Q3.78681,106.28928201446533,3.67849,106.34718201446533Q3.5701799999999997,106.40498201446533,3.456708,106.45198201446533Q3.3432399999999998,106.49898201446533,3.225712,106.53468201446533Q3.108183,106.57028201446533,2.987726,106.59428201446534Q2.867269,106.61828201446534,2.745043,106.63028201446534Q2.622817,106.64228201446534,2.5,106.64228201446534Q2.377183,106.64228201446534,2.254957,106.63028201446534Q2.132731,106.61828201446534,2.012274,106.59428201446534Q1.891817,106.57028201446533,1.7742879999999999,106.53468201446533Q1.65676,106.49898201446533,1.543292,106.45198201446533Q1.42982,106.40498201446533,1.32151,106.34718201446533Q1.21319,106.28928201446533,1.11107,106.22098201446533Q1.00896,106.15278201446533,0.91402,106.07488201446533Q0.81908,105.99698201446533,0.7322299999999999,105.91008201446533Q0.6453899999999999,105.82328201446533,0.5674699999999999,105.72828201446534Q0.48956,105.63338201446533,0.4213300000000002,105.53128201446533Q0.3530899999999999,105.42918201446534,0.2951999999999999,105.32078201446534Q0.23729999999999984,105.21248201446534,0.19030000000000014,105.09908201446532Q0.14329999999999998,104.98558201446534,0.10765000000000002,104.86808201446533Q0.07200000000000006,104.75048201446533,0.04803999999999986,104.63008201446533Q0.0240800000000001,104.50958201446534,0.012039999999999829,104.38738201446533Q0,104.26518201446532,0,104.14228201446534Q0,104.01948201446532,0.012039999999999829,103.89728201446533Q0.0240800000000001,103.77508201446533,0.04803999999999986,103.65458201446533Q0.07200000000000006,103.53418201446533,0.10765000000000002,103.41658201446533Q0.14329999999999998,103.29908201446533,0.19030000000000014,103.18558201446533Q0.23729999999999984,103.07218201446533,0.2951999999999999,102.96388201446533Q0.3530899999999999,102.85548201446534,0.4213300000000002,102.75338201446533Q0.48956,102.65128201446534,0.5674699999999999,102.55638201446533Q0.6453899999999999,102.46138201446533,0.7322299999999999,102.37458201446533Q0.81908,102.28768201446533,0.91402,102.20978201446533Q1.00896,102.13188201446533,1.11107,102.06368201446533Q1.21319,101.99538201446533,1.32151,101.93748201446533Q1.42982,101.87958201446533,1.543292,101.83258201446533Q1.65676,101.78568201446534,1.7742879999999999,101.74998201446533Q1.891817,101.71428201446534,2.012274,101.69038201446533Q2.132731,101.66638201446533,2.254957,101.65438201446533Q2.377183,101.64238201446533,2.5,101.64228201446534Q2.622817,101.64238201446533,2.745043,101.65438201446533Q2.867269,101.66638201446533,2.987726,101.69038201446533Q3.108183,101.71428201446534,3.225712,101.74998201446533Q3.3432399999999998,101.78568201446534,3.456708,101.83258201446533Q3.5701799999999997,101.87958201446533,3.67849,101.93748201446533Q3.78681,101.99538201446533,3.88893,102.06368201446533Q3.99104,102.13188201446533,4.08598,102.20978201446533Q4.18092,102.28768201446533,4.2677700000000005,102.37458201446533Q4.35461,102.46138201446533,4.43253,102.55638201446533Q4.51044,102.65128201446534,4.57867,102.75338201446533Q4.64691,102.85548201446534,4.7048000000000005,102.96388201446533Q4.762700000000001,103.07218201446533,4.809699999999999,103.18558201446533Q4.8567,103.29908201446533,4.89235,103.41658201446533Q4.928,103.53418201446533,4.95196,103.65458201446533Q4.97592,103.77508201446533,4.98796,103.89728201446533Q5,104.01948201446532,5,104.14228201446534Z" fill="#FFFFFF" fill-opacity="1"/></g><g style="mix-blend-mode:passthrough" transform="matrix(1,0,0,-1,0,205.17670440673828)"><ellipse cx="91.96774005889893" cy="111.91211795806885" rx="6.755284309387207" ry="6.823765754699707" fill-opacity="0" stroke-opacity="1" stroke="#FFFFFF" fill="none" stroke-width="5"/></g></g><g style="mix-blend-mode:passthrough"><g style="mix-blend-mode:passthrough"><path d="M108.95518938064575,126.5196882774353L70.95048938064575,136.6943882774353L64.57378938064575,117.2329032774353L66.94958938064576,116.4544882774353L67.65768938064575,118.8520982774353L9.378335380645751,136.0651882774353L7.962043380645752,131.2699882774353L68.56948938064575,113.3692782774353L74.96518938064575,132.8891882774353L72.58948938064574,133.6675882774353L71.94298938064574,131.2526882774353L107.66258938064576,121.6898082774353L108.95518938064575,126.5196882774353ZM110.80918938064575,124.10475827743531Q110.80918938064575,124.2275782774353,110.79718938064575,124.3497982774353Q110.78518938064575,124.4720282774353,110.76118938064575,124.59248827743531Q110.73718938064575,124.7129382774353,110.70118938064576,124.8304682774353Q110.66618938064575,124.9479982774353,110.61918938064575,125.0614682774353Q110.57218938064575,125.1749382774353,110.51418938064575,125.2832482774353Q110.45618938064575,125.3915682774353,110.38818938064576,125.4936882774353Q110.31918938064575,125.5957982774353,110.24118938064575,125.6907382774353Q110.16418938064575,125.7856782774353,110.07718938064575,125.87252827743531Q109.99018938064575,125.9593682774353,109.89518938064575,126.03728827743531Q109.80018938064575,126.1151982774353,109.69818938064576,126.1834282774353Q109.59618938064575,126.2516682774353,109.48718938064575,126.3095582774353Q109.37918938064576,126.3674582774353,109.26618938064576,126.4144582774353Q109.15218938064575,126.46148827743531,109.03518938064575,126.4970882774353Q108.91718938064575,126.5327882774353,108.79718938064575,126.5566882774353Q108.67618938064575,126.5806882774353,108.55418938064575,126.5926882774353Q108.43188938064576,126.6047882774353,108.30908938064576,126.6047882774353Q108.18628938064575,126.6047882774353,108.06408938064575,126.5926882774353Q107.94188938064575,126.5806882774353,107.82138938064575,126.5566882774353Q107.70088938064575,126.5327882774353,107.58338938064576,126.4970882774353Q107.46588938064575,126.46148827743531,107.35238938064575,126.4144582774353Q107.23888938064576,126.3674582774353,107.13058938064576,126.3095582774353Q107.02228938064574,126.2516682774353,106.92018938064575,126.1834282774353Q106.81808938064576,126.1151982774353,106.72308938064575,126.03728827743531Q106.62818938064575,125.9593682774353,106.54128938064575,125.87252827743531Q106.45448938064575,125.7856782774353,106.37658938064575,125.6907382774353Q106.29868938064575,125.5957982774353,106.23038938064575,125.4936882774353Q106.16218938064576,125.3915682774353,106.10428938064575,125.2832482774353Q106.04638938064575,125.1749382774353,105.99938938064575,125.0614682774353Q105.95238938064576,124.9479982774353,105.91678938064575,124.8304682774353Q105.88108938064575,124.7129382774353,105.85708938064575,124.5924782774353Q105.83318938064575,124.4720282774353,105.82118938064575,124.3497982774353Q105.80908938064576,124.2275782774353,105.80908938064576,124.10475827743531Q105.80908938064576,123.9819382774353,105.82118938064575,123.8597182774353Q105.83318938064575,123.7374882774353,105.85708938064575,123.61702827743531Q105.88108938064575,123.4965782774353,105.91678938064575,123.3790482774353Q105.95238938064576,123.2615182774353,105.99938938064575,123.14804827743531Q106.04638938064575,123.0345782774353,106.10428938064575,122.9262682774353Q106.16218938064576,122.8179482774353,106.23038938064575,122.7158282774353Q106.29868938064575,122.6137182774353,106.37658938064575,122.5187782774353Q106.45448938064575,122.42383827743531,106.54128938064575,122.3369882774353Q106.62818938064575,122.2501482774353,106.72308938064575,122.17222827743531Q106.81808938064576,122.0943182774353,106.92018938064575,122.0260882774353Q107.02228938064574,121.9578482774353,107.13058938064576,121.8999582774353Q107.23888938064576,121.8420582774353,107.35238938064575,121.7950582774353Q107.46588938064575,121.7480582774353,107.58338938064576,121.7124082774353Q107.70088938064575,121.6767582774353,107.82138938064575,121.65279827743531Q107.94188938064575,121.6288382774353,108.06408938064575,121.61679827743531Q108.18628938064575,121.60475827743531,108.30908938064576,121.60475827743531Q108.43188938064576,121.60475827743531,108.55418938064575,121.61679827743531Q108.67618938064575,121.6288382774353,108.79718938064575,121.65279827743531Q108.91718938064575,121.6767582774353,109.03518938064575,121.7124082774353Q109.15218938064575,121.7480582774353,109.26618938064576,121.7950582774353Q109.37918938064576,121.8420582774353,109.48718938064575,121.8999582774353Q109.59618938064575,121.9578482774353,109.69818938064576,122.0260882774353Q109.80018938064575,122.0943182774353,109.89518938064575,122.17222827743531Q109.99018938064575,122.2501482774353,110.07718938064575,122.3369882774353Q110.16418938064575,122.42383827743531,110.24118938064575,122.5187782774353Q110.31918938064575,122.6137182774353,110.38818938064576,122.7158282774353Q110.45618938064575,122.8179482774353,110.51418938064575,122.9262682774353Q110.57218938064575,123.0345782774353,110.61918938064575,123.14804827743531Q110.66618938064575,123.2615182774353,110.70118938064576,123.3790482774353Q110.73718938064575,123.4965782774353,110.76118938064575,123.61702827743531Q110.78518938064575,123.7374882774353,110.79718938064575,123.8597182774353Q110.80918938064575,123.9819382774353,110.80918938064575,124.10475827743531ZM11.170189380645752,133.6675882774353Q11.170189380645752,133.7903882774353,11.158149380645753,133.9126882774353Q11.146109380645752,134.0348882774353,11.122149380645752,134.15528827743532Q11.098189380645753,134.2757882774353,11.062539380645752,134.39328827743532Q11.026889380645752,134.5107882774353,10.979889380645751,134.6242882774353Q10.932889380645753,134.7377882774353,10.874989380645752,134.8460882774353Q10.817099380645752,134.9543882774353,10.74885938064575,135.0564882774353Q10.680629380645751,135.15868827743532,10.602719380645752,135.2535882774353Q10.524799380645753,135.3484882774353,10.437959380645752,135.4353882774353Q10.351109380645752,135.5221882774353,10.256169380645751,135.6000882774353Q10.161229380645752,135.6779882774353,10.059119380645752,135.7462882774353Q9.956999380645751,135.81448827743532,9.848679380645752,135.8723882774353Q9.740369380645753,135.9302882774353,9.626897380645753,135.9772882774353Q9.513429380645752,136.0242882774353,9.395901380645752,136.0599882774353Q9.278372380645752,136.0955882774353,9.157915380645752,136.1195882774353Q9.037458380645752,136.1434882774353,8.915232380645753,136.1555882774353Q8.793006380645751,136.1675882774353,8.670189380645752,136.1675882774353Q8.547372380645752,136.1675882774353,8.425146380645751,136.1555882774353Q8.302920380645752,136.1434882774353,8.182463380645752,136.1195882774353Q8.062006380645752,136.0955882774353,7.944477380645752,136.0599882774353Q7.826949380645752,136.0242882774353,7.713481380645752,135.9772882774353Q7.600009380645752,135.9302882774353,7.491699380645752,135.8723882774353Q7.383379380645752,135.81448827743532,7.281259380645752,135.7462882774353Q7.179149380645752,135.6779882774353,7.084209380645752,135.6000882774353Q6.9892693806457515,135.5221882774353,6.9024193806457514,135.4353882774353Q6.815579380645752,135.3484882774353,6.737659380645752,135.2535882774353Q6.659749380645752,135.15868827743532,6.591519380645752,135.0564882774353Q6.523279380645752,134.9543882774353,6.465389380645751,134.8460882774353Q6.407489380645751,134.7377882774353,6.3604893806457525,134.6242882774353Q6.313489380645752,134.5107882774353,6.2778393806457515,134.39328827743532Q6.242189380645752,134.2757882774353,6.218229380645752,134.15528827743532Q6.194269380645752,134.0348882774353,6.182229380645752,133.9126882774353Q6.170189380645752,133.7903882774353,6.170189380645752,133.6675882774353Q6.170189380645752,133.54478827743532,6.182229380645752,133.4225882774353Q6.194269380645752,133.3002882774353,6.218229380645752,133.1798882774353Q6.242189380645752,133.0593882774353,6.2778393806457515,132.9418882774353Q6.313489380645752,132.8243882774353,6.3604893806457525,132.7108882774353Q6.407489380645751,132.5973882774353,6.465389380645751,132.48908827743531Q6.523279380645752,132.3807882774353,6.591519380645752,132.2786882774353Q6.659749380645752,132.17658827743531,6.737659380645752,132.08158827743532Q6.815579380645752,131.9866882774353,6.9024193806457514,131.8997882774353Q6.9892693806457515,131.8129882774353,7.084209380645752,131.7350882774353Q7.179149380645752,131.6571882774353,7.281259380645752,131.5888882774353Q7.383379380645752,131.5206882774353,7.491699380645752,131.4627882774353Q7.600009380645752,131.4048882774353,7.713481380645752,131.3578882774353Q7.826949380645752,131.3108882774353,7.944477380645752,131.2752882774353Q8.062006380645752,131.2395882774353,8.182463380645752,131.2155882774353Q8.302920380645752,131.1916882774353,8.425146380645751,131.1795882774353Q8.547372380645752,131.1675882774353,8.670189380645752,131.1675882774353Q8.793006380645751,131.1675882774353,8.915232380645753,131.1795882774353Q9.037458380645752,131.1916882774353,9.157915380645752,131.2155882774353Q9.278372380645752,131.2395882774353,9.395901380645752,131.2752882774353Q9.513429380645752,131.3108882774353,9.626897380645753,131.3578882774353Q9.740369380645753,131.4048882774353,9.848679380645752,131.4627882774353Q9.956999380645751,131.5206882774353,10.059119380645752,131.5888882774353Q10.161229380645752,131.6571882774353,10.256169380645751,131.7350882774353Q10.351109380645752,131.8129882774353,10.437959380645752,131.8997882774353Q10.524799380645753,131.9866882774353,10.602719380645752,132.08158827743532Q10.680629380645751,132.17658827743531,10.74885938064575,132.2786882774353Q10.817099380645752,132.3807882774353,10.874989380645752,132.48908827743531Q10.932889380645753,132.5973882774353,10.979889380645751,132.7108882774353Q11.026889380645752,132.8243882774353,11.062539380645752,132.9418882774353Q11.098189380645753,133.0593882774353,11.122149380645752,133.1798882774353Q11.146109380645752,133.3002882774353,11.158149380645753,133.4225882774353Q11.170189380645752,133.54478827743532,11.170189380645752,133.6675882774353Z" fill="#FFFFFF" fill-opacity="1"/></g><g style="mix-blend-mode:passthrough" transform="matrix(1,0,0,-1,0,263.51009368896484)"><ellipse cx="117.70906209945679" cy="143.23045253753662" rx="8.779877662658691" ry="8.9754056930542" fill-opacity="0" stroke-opacity="1" stroke="#FFFFFF" fill="none" stroke-width="5"/></g></g><g style="mix-blend-mode:passthrough"><g style="mix-blend-mode:passthrough"><path d="M93.21956861877442,156.87439257080078L65.24106861877442,164.69917257080078L60.46676861877442,149.47726157080078L62.852168618774414,148.72907257080078L63.58926861877441,151.11795257080078L21.747634618774413,164.02777257080078L20.273502618774415,159.2500725708008L64.49286861877442,145.60655257080077L69.28676861877442,160.89067257080077L66.90136861877441,161.63887257080077L66.22796861877441,159.23127257080077L91.87286861877442,152.0591625708008L93.21956861877442,156.87439257080078ZM95.04616861877442,154.46677257080077Q95.04616861877442,154.5895925708008,95.03416861877442,154.7118225708008Q95.02216861877442,154.8340425708008,94.99816861877441,154.95450257080077Q94.97416861877441,155.07495257080078,94.93856861877441,155.1924825708008Q94.90286861877442,155.31001257080078,94.85586861877441,155.4234825708008Q94.80886861877441,155.5369525708008,94.75096861877441,155.64526257080078Q94.69306861877442,155.75358257080077,94.62486861877441,155.8557025708008Q94.55666861877441,155.95782257080077,94.47876861877441,156.05276257080078Q94.40086861877441,156.14769257080079,94.31396861877441,156.23454257080078Q94.22716861877441,156.32138257080078,94.13216861877441,156.39930257080078Q94.03726861877442,156.4772125708008,93.93516861877441,156.5454525708008Q93.83296861877442,156.6136825708008,93.72466861877442,156.67157257080078Q93.61636861877442,156.7294725708008,93.50286861877441,156.7764725708008Q93.38946861877442,156.8234725708008,93.27196861877441,156.8591225708008Q93.15436861877441,156.89477257080077,93.03396861877441,156.91873257080078Q92.91346861877442,156.94270257080078,92.79126861877441,156.9547325708008Q92.66906861877442,156.96677257080077,92.54616861877442,156.96677257080077Q92.42336861877442,156.96677257080077,92.30116861877441,156.9547325708008Q92.17896861877442,156.94270257080078,92.05846861877441,156.91873257080078Q91.93796861877442,156.89477257080077,91.82046861877441,156.8591225708008Q91.70296861877442,156.8234725708008,91.58946861877442,156.7764725708008Q91.47606861877442,156.7294725708008,91.36766861877442,156.67157257080078Q91.25936861877442,156.6136825708008,91.15726861877441,156.5454425708008Q91.05516861877442,156.4772125708008,90.96026861877442,156.39930257080078Q90.86526861877441,156.32138257080078,90.77846861877441,156.23454257080078Q90.69156861877441,156.14769257080079,90.61366861877441,156.05276257080078Q90.53576861877441,155.95782257080077,90.46756861877441,155.8557025708008Q90.39926861877441,155.75358257080077,90.34136861877441,155.64526257080078Q90.28346861877442,155.5369525708008,90.23646861877441,155.4234825708008Q90.18946861877441,155.31001257080078,90.15386861877441,155.1924825708008Q90.11816861877442,155.07496257080078,90.09426861877441,154.95450257080077Q90.07026861877442,154.8340425708008,90.05826861877442,154.7118225708008Q90.04616861877442,154.5895925708008,90.04616861877442,154.46677257080077Q90.04616861877442,154.34395257080078,90.05826861877442,154.22173257080078Q90.07026861877442,154.09950257080078,90.09426861877441,153.97905257080077Q90.11816861877442,153.8585925708008,90.15386861877441,153.74106257080078Q90.18946861877441,153.6235325708008,90.23646861877441,153.51006257080078Q90.28346861877442,153.39660257080078,90.34136861877441,153.2882825708008Q90.39926861877441,153.17997257080077,90.46756861877441,153.0778525708008Q90.53576861877441,152.97573257080077,90.61366861877441,152.8807925708008Q90.69156861877441,152.78585257080078,90.77846861877441,152.6990125708008Q90.86526861877441,152.6121625708008,90.96026861877442,152.5342525708008Q91.05516861877442,152.45633257080078,91.15726861877441,152.38810257080078Q91.25936861877442,152.31986257080078,91.36766861877442,152.2619725708008Q91.47606861877442,152.20407257080078,91.58946861877442,152.15707257080078Q91.70296861877442,152.11007257080078,91.82046861877441,152.07442257080078Q91.93796861877442,152.03877257080077,92.05846861877441,152.01481257080079Q92.17896861877442,151.99085257080077,92.30116861877441,151.97881257080078Q92.42336861877442,151.96677257080077,92.54616861877442,151.96677257080077Q92.66906861877442,151.96677257080077,92.79126861877441,151.97881257080078Q92.91346861877442,151.99085257080077,93.03396861877441,152.01481257080079Q93.15436861877441,152.03877257080077,93.27196861877441,152.07442257080078Q93.38946861877442,152.11007257080078,93.50286861877441,152.15707257080078Q93.61636861877442,152.20407257080078,93.72466861877442,152.2619725708008Q93.83296861877442,152.31986257080078,93.93516861877441,152.38810257080078Q94.03726861877442,152.45633257080078,94.13216861877441,152.5342525708008Q94.22716861877441,152.6121625708008,94.31396861877441,152.6990025708008Q94.40086861877441,152.78585257080078,94.47876861877441,152.8807925708008Q94.55666861877441,152.97573257080077,94.62486861877441,153.0778525708008Q94.69306861877442,153.17996257080077,94.75096861877441,153.2882825708008Q94.80886861877441,153.39660257080078,94.85586861877441,153.51006257080078Q94.90286861877442,153.6235325708008,94.93856861877441,153.74106257080078Q94.97416861877441,153.8585925708008,94.99816861877441,153.97905257080077Q95.02216861877442,154.09950257080078,95.03416861877442,154.22173257080078Q95.04616861877442,154.34395257080078,95.04616861877442,154.46677257080077ZM23.510568618774414,161.63887257080077Q23.510568618774414,161.76167257080078,23.498528618774415,161.88397257080078Q23.486488618774413,162.00617257080077,23.462528618774414,162.1266725708008Q23.438568618774415,162.24707257080078,23.402918618774414,162.3645725708008Q23.367268618774414,162.48217257080077,23.320268618774413,162.59557257080078Q23.273268618774413,162.70907257080077,23.215368618774413,162.81737257080079Q23.157478618774412,162.92567257080077,23.089238618774413,163.02787257080078Q23.021008618774413,163.1299725708008,22.943098618774414,163.22487257080078Q22.865178618774415,163.31987257080078,22.778338618774413,163.4066725708008Q22.691488618774414,163.49347257080078,22.596548618774413,163.57147257080078Q22.501608618774412,163.64937257080078,22.399498618774413,163.71757257080077Q22.297378618774413,163.7857725708008,22.189058618774414,163.84367257080078Q22.080748618774415,163.9015725708008,21.967276618774413,163.9485725708008Q21.853808618774416,163.9955725708008,21.736280618774416,164.03127257080078Q21.618751618774414,164.06687257080077,21.498294618774413,164.09087257080077Q21.377837618774414,164.11487257080077,21.255611618774413,164.12687257080077Q21.133385618774415,164.13887257080077,21.010568618774414,164.13887257080077Q20.887751618774413,164.13887257080077,20.765525618774415,164.12687257080077Q20.643299618774414,164.11487257080077,20.522842618774416,164.09087257080077Q20.402385618774414,164.06687257080077,20.284856618774413,164.03127257080078Q20.167328618774413,163.9955725708008,20.053860618774415,163.9485725708008Q19.940388618774413,163.9015725708008,19.832078618774414,163.84367257080078Q19.723758618774415,163.7857725708008,19.621638618774416,163.71757257080077Q19.519528618774416,163.64937257080078,19.424588618774415,163.57147257080078Q19.329648618774414,163.49347257080078,19.242798618774415,163.4066725708008Q19.155958618774413,163.31987257080078,19.078038618774414,163.22487257080078Q19.000128618774415,163.1299725708008,18.931898618774415,163.02787257080078Q18.863658618774416,162.92567257080077,18.805768618774415,162.81737257080079Q18.747868618774415,162.70907257080077,18.700868618774415,162.59557257080078Q18.653868618774414,162.48217257080077,18.618218618774414,162.3645725708008Q18.582568618774413,162.24707257080078,18.558608618774414,162.1266725708008Q18.534648618774415,162.00617257080077,18.522608618774413,161.88397257080078Q18.510568618774414,161.76167257080078,18.510568618774414,161.63887257080077Q18.510568618774414,161.5160725708008,18.522608618774413,161.3938725708008Q18.534648618774415,161.27167257080077,18.558608618774414,161.15117257080078Q18.582568618774413,161.0306725708008,18.618218618774414,160.91317257080078Q18.653868618774414,160.79567257080078,18.700868618774415,160.6821725708008Q18.747868618774415,160.56877257080077,18.805768618774415,160.46037257080079Q18.863658618774416,160.35207257080077,18.931898618774415,160.2499725708008Q19.000128618774415,160.14787257080079,19.078038618774414,160.0528725708008Q19.155958618774413,159.9579725708008,19.242798618774415,159.87117257080078Q19.329648618774414,159.7842725708008,19.424588618774415,159.7063725708008Q19.519528618774416,159.6284725708008,19.621638618774416,159.56027257080078Q19.723758618774415,159.49197257080078,19.832078618774414,159.4340725708008Q19.940388618774413,159.37617257080078,20.053860618774415,159.32917257080078Q20.167328618774413,159.28217257080078,20.284856618774413,159.2465725708008Q20.402385618774414,159.21087257080077,20.522842618774416,159.18697257080078Q20.643299618774414,159.16297257080078,20.765525618774415,159.15097257080077Q20.887751618774413,159.13887257080077,21.010568618774414,159.13887257080077Q21.133385618774415,159.13887257080077,21.255611618774413,159.15097257080077Q21.377837618774414,159.16297257080078,21.498294618774413,159.18697257080078Q21.618751618774414,159.21087257080077,21.736280618774416,159.2465725708008Q21.853808618774416,159.28217257080078,21.967276618774413,159.32917257080078Q22.080748618774415,159.37617257080078,22.189058618774414,159.4340725708008Q22.297378618774413,159.49197257080078,22.399498618774413,159.56027257080078Q22.501608618774412,159.6284725708008,22.596548618774413,159.7063725708008Q22.691488618774414,159.7842725708008,22.778338618774413,159.87117257080078Q22.865178618774415,159.9579725708008,22.943098618774414,160.0528725708008Q23.021008618774413,160.14787257080079,23.089238618774413,160.2499725708008Q23.157478618774412,160.35207257080077,23.215368618774413,160.46037257080079Q23.273268618774413,160.56877257080077,23.320268618774413,160.6821725708008Q23.367268618774414,160.79567257080078,23.402918618774414,160.91317257080078Q23.438568618774415,161.0306725708008,23.462528618774414,161.15117257080078Q23.486488618774413,161.27167257080077,23.498528618774415,161.3938725708008Q23.510568618774414,161.5160725708008,23.510568618774414,161.63887257080077Z" fill="#FFFFFF" fill-opacity="1"/></g><g style="mix-blend-mode:passthrough" transform="matrix(1,0,0,-1,0,320.4090042114258)"><ellipse cx="99.2947940826416" cy="168.81105613708496" rx="5.5983734130859375" ry="6.10655403137207" fill-opacity="0" stroke-opacity="1" stroke="#FFFFFF" fill="none" stroke-width="5"/></g></g></g></svg>