<svg xmlns="http://www.w3.org/2000/svg" xmlns:xlink="http://www.w3.org/1999/xlink" fill="none" version="1.1" width="265" height="265" viewBox="0 0 265 265"><defs><clipPath id="master_svg0_31_880"><rect x="0" y="0" width="265" height="265" rx="0"/></clipPath><filter id="master_svg1_31_894" filterUnits="objectBoundingBox" color-interpolation-filters="sRGB" x="-12" y="-9" width="85.86661529541016" height="85.91891860961914"><feFlood flood-opacity="0" result="BackgroundImageFix"/><feColorMatrix in="SourceAlpha" type="matrix" values="0 0 0 0 0 0 0 0 0 0 0 0 0 0 0 0 0 0 127 0"/><feOffset dy="3" dx="0"/><feGaussianBlur stdDeviation="3"/><feColorMatrix type="matrix" values="0 0 0 0 0 0 0 0 0 0 0 0 0 0 0 0 0 0 0.23000000417232513 0"/><feBlend mode="normal" in2="BackgroundImageFix" result="effect1_dropShadow"/><feBlend mode="normal" in="SourceGraphic" in2="effect1_dropShadow" result="shape"/></filter><filter id="master_svg2_31_887" filterUnits="objectBoundingBox" color-interpolation-filters="sRGB" x="0" y="0" width="88" height="41"><feFlood flood-opacity="0" result="BackgroundImageFix"/><feBlend mode="normal" in="SourceGraphic" in2="BackgroundImageFix" result="shape"/><feGaussianBlur in="BackgroundImage" stdDeviation="5"/><feComposite in2="SourceAlpha" operator="in" result="effect1_foregroundBlur"/><feBlend mode="normal" in="SourceGraphic" in2="effect1_foregroundBlur" result="shape"/></filter></defs><g style="mix-blend-mode:passthrough" clip-path="url(#master_svg0_31_880)"><rect x="0" y="0" width="265" height="265" rx="0" fill="#FFFFFF" fill-opacity="1"/><g style="mix-blend-mode:passthrough"><g style="mix-blend-mode:passthrough"><path d="M113.77948817138672,118Q114.83278817138671,120.07294,115.63578817138672,122.25527Q116.43878817138672,124.4376,116.98028817138672,126.69916Q117.52188817138672,128.9607,117.79458817138672,131.2703Q118.06718817138672,133.5798,118.06718817138672,135.9054Q118.06718817138672,136.5807,118.04418817138672,137.2555Q118.02108817138672,137.9304,117.97498817138671,138.6041Q117.92888817138672,139.2778,117.85978817138673,139.9495Q117.79078817138672,140.6212,117.69878817138672,141.2902Q117.60678817138671,141.9592,117.49198817138672,142.6246Q117.37728817138672,143.29,117.23978817138672,143.9512Q117.10238817138672,144.6123,116.94248817138671,145.2683Q116.78258817138672,145.9243,116.60028817138672,146.5745Q116.41808817138671,147.22469999999998,116.21368817138672,147.8682Q116.00938817138672,148.5118,115.78318817138671,149.148Q115.55698817138672,149.7842,115.30918817138672,150.41219999999998Q115.06138817138671,151.0403,114.79228817138672,151.6596Q114.52318817138672,152.2788,114.23308817138673,152.8885Q113.94308817138672,153.4981,113.63228817138672,154.0975Q113.32158817138672,154.6969,112.99058817138672,155.2853Q112.65948817138673,155.87369999999999,112.30858817138672,156.4505Q111.95768817138672,157.0272,111.58718817138671,157.5916Q111.21678817138672,158.156,110.82728817138673,158.7074Q110.43788817138672,159.2588,110.02978817138671,159.7966Q109.62168817138672,160.33429999999998,109.19548817138671,160.8578Q108.76928817138672,161.3813,108.32538817138672,161.8898Q107.88158817138672,162.3984,107.42058817138673,162.8915Q106.95968817138672,163.3846,106.48213817138672,163.86169999999998Q106.00461817138672,164.33870000000002,105.51107817138671,164.79919999999998Q105.01754817138672,165.2596,104.50857817138672,165.7029Q103.99959817138672,166.1462,103.47578817138672,166.5718Q102.95197817138671,166.9974,102.41393817138672,167.4049Q101.87588817138672,167.8123,101.32424817138671,168.2011Q100.77260817138672,168.5899,100.20800817138672,168.9596Q99.64340817138672,169.3293,99.06650817138672,169.6795Q98.48961817138672,170.02960000000002,97.90109817138672,170.3599Q97.31258017138671,170.6901,96.71312812778672,171L205.50018817138672,171Q206.15018817138673,171,206.8001881713867,170.9681Q207.4501881713867,170.93619999999999,208.09718817138673,170.8724Q208.7451881713867,170.8086,209.38818817138673,170.7132Q210.03218817138674,170.6177,210.6701881713867,170.4908Q211.30818817138672,170.3639,211.93918817138672,170.2058Q212.57018817138672,170.0478,213.1921881713867,169.8589Q213.81518817138672,169.6701,214.42718817138672,169.4509Q215.04018817138672,169.2318,215.64118817138672,168.9828Q216.24218817138672,168.7338,216.83018817138674,168.4557Q217.4181881713867,168.17759999999998,217.99218817138672,167.8709Q218.56618817138673,167.5642,219.12418817138672,167.2298Q219.68118817138674,166.8954,220.22218817138673,166.53390000000002Q220.76318817138673,166.1725,221.2861881713867,165.785Q221.80818817138672,165.3975,222.31118817138673,164.9848Q222.81418817138672,164.5721,223.29618817138672,164.1352Q223.77818817138672,163.69830000000002,224.23818817138672,163.2383Q224.69818817138673,162.7783,225.13518817138672,162.2963Q225.57218817138673,161.8143,225.9851881713867,161.3114Q226.39718817138672,160.8085,226.78518817138672,160.286Q227.17218817138672,159.7635,227.53418817138672,159.2226Q227.8951881713867,158.6817,228.23018817138671,158.12369999999999Q228.56418817138672,157.5657,228.8711881713867,156.992Q229.17718817138672,156.4183,229.4551881713867,155.8302Q229.7341881713867,155.2421,229.98318817138673,154.6411Q230.23218817138672,154.0401,230.45118817138672,153.42759999999998Q230.6701881713867,152.8151,230.8591881713867,152.1925Q231.04818817138673,151.57,231.2061881713867,150.939Q231.36418817138673,150.3079,231.4911881713867,149.66989999999998Q231.61818817138672,149.0319,231.71318817138672,148.3884Q231.80818817138672,147.7449,231.8721881713867,147.0975Q231.93618817138673,146.45,231.9681881713867,145.8003Q232.00018817138672,145.1505,232.00018817138672,144.5Q232.00018817138672,143.8495,231.9681881713867,143.1997Q231.93618817138673,142.55,231.8721881713867,141.9025Q231.80818817138672,141.2551,231.71318817138672,140.6116Q231.61818817138672,139.9681,231.4911881713867,139.33010000000002Q231.36418817138673,138.6921,231.2061881713867,138.061Q231.04818817138673,137.43,230.8591881713867,136.8075Q230.6701881713867,136.1849,230.45118817138672,135.5724Q230.23218817138672,134.9599,229.98318817138673,134.3589Q229.7341881713867,133.7579,229.4561881713867,133.1698Q229.17718817138672,132.5817,228.8711881713867,132.008Q228.56418817138672,131.4343,228.23018817138671,130.87630000000001Q227.8951881713867,130.3183,227.53418817138672,129.7774Q227.17218817138672,129.2365,226.78518817138672,128.714Q226.39718817138672,128.1915,225.9851881713867,127.68858Q225.57218817138673,127.1857,225.13518817138672,126.70369Q224.69818817138673,126.22167,224.23818817138672,125.76167Q223.77818817138672,125.30167,223.29618817138672,124.86479Q222.81418817138672,124.42792,222.31118817138673,124.01522Q221.80818817138672,123.60253,221.2861881713867,123.215Q220.76318817138673,122.82747,220.22218817138673,122.46605Q219.68118817138674,122.10464,219.12418817138672,121.77019Q218.56618817138673,121.43575,217.99218817138672,121.12909Q217.4181881713867,120.82242,216.83018817138674,120.54428Q216.24218817138672,120.26614000000001,215.64118817138672,120.01719Q215.04018817138672,119.76824,214.42718817138672,119.54908Q213.81518817138672,119.32992,213.1921881713867,119.14108Q212.57018817138672,118.95224,211.93918817138672,118.794172Q211.30818817138672,118.636104,210.6701881713867,118.50919Q210.03218817138674,118.382276,209.38818817138673,118.286822Q208.7451881713867,118.191369,208.09718817138673,118.127605Q207.4501881713867,118.0638408,206.8001881713867,118.0319204Q206.15018817138673,118,205.50018817138672,118L113.77948817138672,118L113.77948817138672,118Z" fill-rule="evenodd" fill="#698DFF" fill-opacity="1"/></g><g style="mix-blend-mode:passthrough"><g style="mix-blend-mode:passthrough" transform="matrix(1,0,0,-1,0,344)"><ellipse cx="71.46663284301758" cy="211.5" rx="39.46663284301758" ry="39.5" fill="#3662EC" fill-opacity="1"/><ellipse cx="71.46663284301758" cy="211.5" rx="40.96663284301758" ry="41" fill-opacity="0" stroke-opacity="1" stroke="#FFFFFF" fill="none" stroke-width="3"/></g><g style="mix-blend-mode:passthrough"><g style="mix-blend-mode:passthrough" filter="url(#master_svg1_31_894)"><path d="M80.9598251953125,118.4680763458252Q81.2114251953125,118.8601763458252,81.5311251953125,119.1989763458252Q81.8508251953125,119.5377763458252,82.2276251953125,119.8117763458252Q82.6045251953125,120.08567634582519,83.0254251953125,120.2852763458252Q83.4463251953125,120.4848763458252,83.89692519531249,120.6033763458252L93.36232519531251,123.0908763458252Q93.51332519531249,123.13057634582519,93.6617251953125,123.1796763458252Q93.8100251953125,123.22867634582519,93.9550251953125,123.2869763458252Q94.0999251953125,123.3451763458252,94.2410251953125,123.4123763458252Q94.38202519531251,123.47947634582519,94.5186251953125,123.5553763458252Q94.6552251953125,123.6311763458252,94.7868251953125,123.71537634582519Q94.9184251953125,123.79957634582519,95.0445251953125,123.8918763458252Q95.1705251953125,123.98417634582519,95.2906251953125,124.0841763458252Q95.41062519531249,124.18407634582519,95.52422519531251,124.2913763458252Q95.6378251953125,124.39857634582519,95.74452519531249,124.51277634582519Q95.85122519531251,124.6268763458252,95.95052519531251,124.74747634582519Q96.04982519531251,124.86807634582519,96.14142519531251,124.9945763458252Q96.23312519531251,125.12117634582519,96.3166251953125,125.2531763458252Q96.4001251953125,125.38517634582519,96.47532519531251,125.52217634582519Q96.5504251953125,125.65917634582519,96.6168251953125,125.80057634582519Q96.6833251953125,125.9419763458252,96.7407251953125,126.08727634582519Q96.7982251953125,126.23247634582519,96.8465251953125,126.38107634582519Q96.8948251953125,126.5296763458252,96.93372519531249,126.6809763458252Q96.9726251953125,126.83227634582519,97.0020251953125,126.9856763458252Q97.0314251953125,127.13917634582519,97.0512251953125,127.2940763458252Q97.0710251953125,127.44907634582519,97.08102519531249,127.6049763458252Q97.0911251953125,127.7608763458252,97.0914251953125,127.9171763458252Q97.0917251953125,128.07337634582518,97.0822251953125,128.22927634582518Q97.0728251953125,128.3852763458252,97.05362519531249,128.5402763458252Q97.03442519531251,128.6953763458252,97.00562519531249,128.8488763458252Q96.9768251953125,129.0024763458252,96.9384251953125,129.1538763458252Q96.9001251953125,129.3053763458252,96.8523251953125,129.4540763458252Q96.8046251953125,129.6028763458252,96.7477251953125,129.7483763458252Q96.6908251953125,129.8938763458252,96.6249251953125,130.0354763458252Q96.5590251953125,130.1771763458252,96.4844251953125,130.3143763458252Q96.4098251953125,130.4516763458252,96.3268251953125,130.5839763458252Q96.24372519531249,130.7163763458252,96.15262519531251,130.8432763458252Q96.0615251953125,130.9701763458252,95.9626251953125,131.0910763458252L89.7619251953125,138.6766763458252Q89.4673251953125,139.0370763458252,89.2443251953125,139.4456763458252Q89.0213251953125,139.85417634582518,88.8776251953125,140.29687634582518Q88.7338251953125,140.7396763458252,88.67432519531249,141.2012763458252Q88.6147251953125,141.6628763458252,88.64142519531251,142.1275763458252L89.20262519531249,151.9081763458252Q89.21162519531251,152.0641763458252,89.21082519531251,152.2204763458252Q89.2100251953125,152.3767763458252,89.1994251953125,152.5326763458252Q89.1888251953125,152.6886763458252,89.1686251953125,152.8435763458252Q89.14832519531251,152.9985763458252,89.11832519531251,153.1519763458252Q89.08842519531251,153.3053763458252,89.04902519531251,153.4566763458252Q89.0095251953125,153.6078763458252,88.9607251953125,153.7563763458252Q88.9119251953125,153.9048763458252,88.8539251953125,154.0499763458252Q88.79592519531249,154.19507634582519,88.7289251953125,154.3363763458252Q88.66202519531251,154.47757634582518,88.5863251953125,154.61437634582518Q88.5107251953125,154.7510763458252,88.4267251953125,154.8828763458252Q88.34262519531251,155.0146763458252,88.25052519531249,155.1409763458252Q88.1584251953125,155.2672763458252,88.0586251953125,155.38747634582518Q87.9588251953125,155.5077763458252,87.8517251953125,155.6215763458252Q87.7446251953125,155.7353763458252,87.6305251953125,155.8422763458252Q87.5165251953125,155.9491763458252,87.39602519531249,156.0487763458252Q87.2756251953125,156.1483763458252,87.14912519531251,156.2401763458252Q87.0226251953125,156.3320763458252,86.8907251953125,156.41577634582518Q86.75872519531251,156.4995763458252,86.62182519531251,156.57497634582518Q86.4849251953125,156.6502763458252,86.34352519531251,156.7169763458252Q86.20222519531251,156.7836763458252,86.0569251953125,156.8413763458252Q85.9117251953125,156.8990763458252,85.7631251953125,156.9475763458252Q85.6145251953125,156.9960763458252,85.4632251953125,157.0352763458252Q85.3119251953125,157.0743763458252,85.1584251953125,157.1039763458252Q85.0049251953125,157.1335763458252,84.8499251953125,157.1535763458252Q84.69492519531249,157.1735763458252,84.53902519531249,157.18387634582518Q84.3830251953125,157.19407634582518,84.2267251953125,157.1945763458252Q84.07042519531251,157.19507634582519,83.9144251953125,157.1857763458252Q83.7584251953125,157.1765763458252,83.60322519531249,157.1575763458252Q83.4481251953125,157.1385763458252,83.2945251953125,157.1098763458252Q83.1408251953125,157.0812763458252,82.9892251953125,157.0430763458252Q82.8377251953125,157.0048763458252,82.6888251953125,156.9572763458252Q82.53992519531249,156.9097763458252,82.39432519531249,156.8529763458252L73.2832251953125,153.2999763458252Q72.8489251953125,153.13067634582518,72.3908251953125,153.0444763458252Q71.9327251953125,152.9583763458252,71.4666251953125,152.9583763458252Q71.00052519531249,152.9583763458252,70.5424251953125,153.0444763458252Q70.0843251953125,153.13067634582518,69.6501251953125,153.2999763458252L60.5389251953125,156.8529763458252Q60.3933251953125,156.9097763458252,60.2444251953125,156.9572763458252Q60.095525195312504,157.0048763458252,59.9440251953125,157.0430763458252Q59.792425195312504,157.0812763458252,59.6388251953125,157.1098763458252Q59.4851251953125,157.1385763458252,59.3300251953125,157.1575763458252Q59.1749251953125,157.1765763458252,59.0188251953125,157.1857763458252Q58.862825195312496,157.19507634582519,58.7065251953125,157.1945763458252Q58.5502251953125,157.19407634582518,58.394325195312504,157.18387634582518Q58.2383251953125,157.1735763458252,58.0833251953125,157.1535763458252Q57.928325195312496,157.1335763458252,57.7748251953125,157.1039763458252Q57.6214251953125,157.0743763458252,57.4700251953125,157.0352763458252Q57.318725195312496,156.9960763458252,57.1701251953125,156.9475763458252Q57.021625195312495,156.8990763458252,56.8763251953125,156.8413763458252Q56.7311251953125,156.7836763458252,56.5897251953125,156.7169763458252Q56.4483251953125,156.6502763458252,56.3114251953125,156.57497634582518Q56.1745251953125,156.4995763458252,56.0425251953125,156.41577634582518Q55.9106251953125,156.3320763458252,55.7841251953125,156.2401763458252Q55.6577251953125,156.1483763458252,55.5372251953125,156.0487763458252Q55.4167251953125,155.9491763458252,55.3027251953125,155.8422763458252Q55.1887251953125,155.7353763458252,55.0815251953125,155.6215763458252Q54.9744251953125,155.5077763458252,54.874625195312504,155.38747634582518Q54.7748251953125,155.2672763458252,54.6827251953125,155.1409763458252Q54.5906251953125,155.0146763458252,54.5066251953125,154.8828763458252Q54.4225251953125,154.7510763458252,54.3469251953125,154.61437634582518Q54.271225195312496,154.47757634582518,54.2043251953125,154.3363763458252Q54.1373251953125,154.19507634582519,54.0793251953125,154.0499763458252Q54.0214251953125,153.9048763458252,53.9725251953125,153.7563763458252Q53.9237251953125,153.6078763458252,53.8843251953125,153.4566763458252Q53.8448251953125,153.3053763458252,53.8149251953125,153.1519763458252Q53.7850251953125,152.9985763458252,53.7647251953125,152.8435763458252Q53.7444251953125,152.6886763458252,53.7338251953125,152.5326763458252Q53.7232251953125,152.3767763458252,53.722425195312496,152.2204763458252Q53.7216251953125,152.0641763458252,53.7306251953125,151.9081763458252L54.2919251953125,142.1275763458252Q54.3185251953125,141.6628763458252,54.2590251953125,141.2012763458252Q54.1994251953125,140.7396763458252,54.0556251953125,140.29687634582518Q53.9119251953125,139.85417634582518,53.6889251953125,139.4456763458252Q53.4659251953125,139.0370763458252,53.1713251953125,138.6766763458252L46.9706451953125,131.0910763458252Q46.8717751953125,130.9701763458252,46.7806451953125,130.8432763458252Q46.6895051953125,130.7163763458252,46.6064751953125,130.5839763458252Q46.5234451953125,130.4516763458252,46.4488351953125,130.3143763458252Q46.3742351953125,130.1771763458252,46.3083451953125,130.0354763458252Q46.2424451953125,129.8938763458252,46.1855251953125,129.7483763458252Q46.1286051953125,129.6028763458252,46.0808851953125,129.4540763458252Q46.0331551953125,129.3053763458252,45.9948151953125,129.1538763458252Q45.956465195312504,129.0024763458252,45.9276551953125,128.8488763458252Q45.8988351953125,128.6953763458252,45.8796651953125,128.5402763458252Q45.8604851953125,128.3852763458252,45.8510351953125,128.22927634582518Q45.8415751953125,128.07337634582518,45.8418751953125,127.9171763458252Q45.8421751953125,127.7608763458252,45.8522251953125,127.6049763458252Q45.8622751953125,127.44907634582519,45.8820351953125,127.2940763458252Q45.9018051953125,127.13917634582519,45.9312051953125,126.9856763458252Q45.960605195312496,126.83227634582519,45.9995251953125,126.6809763458252Q46.0384451953125,126.5296763458252,46.0867451953125,126.38107634582519Q46.1350351953125,126.23247634582519,46.1925051953125,126.08727634582519Q46.2499851953125,125.9419763458252,46.3164151953125,125.80057634582519Q46.3828451953125,125.65917634582519,46.4579751953125,125.52217634582519Q46.5331051953125,125.38517634582519,46.6166351953125,125.2531763458252Q46.7001751953125,125.12117634582519,46.7917851953125,124.9945763458252Q46.8834051953125,124.86807634582519,46.9827351953125,124.74747634582519Q47.0820751953125,124.6268763458252,47.1887451953125,124.51277634582519Q47.2954151953125,124.39857634582519,47.4090051953125,124.2913763458252Q47.5225951953125,124.18407634582519,47.6426551953125,124.0841763458252Q47.7627151953125,123.98417634582519,47.8887851953125,123.8918763458252Q48.0148551953125,123.79967634582519,48.1464351953125,123.71537634582519Q48.2780251953125,123.6311763458252,48.414605195312504,123.5553763458252Q48.5511951953125,123.47947634582519,48.6922451953125,123.4123763458252Q48.8333051953125,123.3451763458252,48.9782751953125,123.2869763458252Q49.1232451953125,123.22867634582519,49.2715751953125,123.1796763458252Q49.4198951953125,123.13057634582519,49.5709951953125,123.0908763458252L59.0363251953125,120.6033763458252Q59.4869251953125,120.4848763458252,59.9078251953125,120.2852763458252Q60.328825195312504,120.08567634582519,60.7056251953125,119.8117763458252Q61.082425195312496,119.5377763458252,61.4021251953125,119.1989763458252Q61.721825195312505,118.8601763458252,61.9734251953125,118.4680763458252L67.2586251953125,110.23261634582519Q67.3431251953125,110.1010463458252,67.4356251953125,109.9750063458252Q67.5280251953125,109.84896634582519,67.6282251953125,109.7289463458252Q67.7284251953125,109.6089263458252,67.8359251953125,109.49540634582519Q67.9434251953125,109.3818863458252,68.0578251953125,109.2752963458252Q68.1721251953125,109.16871634582519,68.2930251953125,109.0694763458252Q68.4138251953125,108.97024634582519,68.5405251953125,108.8787563458252Q68.6673251953125,108.7872663458252,68.7995251953125,108.7038763458252Q68.9318251953125,108.6204763458252,69.06902519531249,108.5455063458252Q69.2062251953125,108.4705463458252,69.3478251953125,108.4042863458252Q69.48942519531249,108.3380363458252,69.6348251953125,108.2807663458252Q69.7803251953125,108.2234863458252,69.92912519531251,108.1754163458252Q70.0778251953125,108.1273363458252,70.2293251953125,108.0886563458252Q70.3808251953125,108.0499663458252,70.53442519531251,108.0208163458252Q70.68802519531249,107.9916663458252,70.8431251953125,107.97217634582519Q70.9982251953125,107.9526763458252,71.1542251953125,107.9429063458252Q71.3103251953125,107.9331463458252,71.4666251953125,107.9331463458252Q71.6229251953125,107.9331463458252,71.7790251953125,107.9429063458252Q71.9350251953125,107.9526763458252,72.0901251953125,107.97217634582519Q72.2452251953125,107.9916663458252,72.3988251953125,108.0208163458252Q72.55242519531251,108.0499663458252,72.70392519531251,108.0886563458252Q72.8554251953125,108.1273363458252,73.0042251953125,108.1754163458252Q73.15292519531249,108.2234863458252,73.29842519531249,108.2807663458252Q73.4438251953125,108.3380363458252,73.5855251953125,108.4042863458252Q73.72712519531251,108.4705463458252,73.8643251953125,108.5455063458252Q74.00142519531249,108.6204763458252,74.13372519531251,108.70386634582519Q74.26592519531249,108.7872663458252,74.3927251953125,108.8787563458252Q74.5195251953125,108.97024634582519,74.6403251953125,109.0694763458252Q74.7611251953125,109.1687063458252,74.8754251953125,109.2752963458252Q74.9898251953125,109.3818863458252,75.0973251953125,109.49540634582519Q75.20482519531251,109.6089263458252,75.30502519531251,109.7289463458252Q75.4052251953125,109.84896634582519,75.4977251953125,109.9750063458252Q75.5902251953125,110.1010463458252,75.6746251953125,110.23261634582519L80.9598251953125,118.4680763458252Z" fill="#FFC300" fill-opacity="1"/></g><g style="mix-blend-mode:passthrough"><path d="M62.5,138L62.5,132L65.5,132L65.5,138L62.5,138ZM65.5,138Q65.5,138.07369,65.49278,138.14703Q65.48555,138.22036,65.47118,138.29263Q65.4568,138.36491,65.43541,138.43543Q65.41402,138.50594,65.38582,138.57402Q65.35762,138.64211,65.32288,138.70709Q65.28814,138.77208,65.2472,138.83335Q65.20626,138.89463,65.15952,138.95159Q65.11277,139.00855,65.06066,139.06066Q65.00855,139.11277,64.95159,139.15952Q64.894627,139.20626,64.833355,139.2472Q64.772084,139.28814,64.707095,139.32288Q64.642106,139.35762,64.574025,139.38582Q64.505944,139.41402,64.435427,139.43541Q64.36491,139.4568,64.292635,139.47118Q64.220361,139.48555,64.147026,139.49278Q64.0736903,139.5,64,139.5Q63.9263097,139.5,63.852974,139.49278Q63.779639,139.48555,63.707365,139.47118Q63.63509,139.4568,63.564573,139.43541Q63.494056,139.41402,63.425975,139.38582Q63.357894,139.35762,63.292905,139.32288Q63.227916,139.28814,63.166645,139.2472Q63.105373,139.20626,63.04841,139.15952Q62.99145,139.11277,62.93934,139.06066Q62.88723,139.00855,62.84048,138.95159Q62.79374,138.89463,62.7528,138.83335Q62.71186,138.77208,62.67712,138.70709Q62.64238,138.64211,62.61418,138.57402Q62.58598,138.50594,62.56459,138.43543Q62.5432,138.36491,62.52882,138.29263Q62.51445,138.22036,62.50722,138.14703Q62.5,138.07369,62.5,138Q62.5,137.92631,62.50722,137.85297Q62.51445,137.77964,62.52882,137.70736Q62.5432,137.63509,62.56459,137.56457Q62.58598,137.49406,62.61418,137.42597Q62.64238,137.35789,62.67712,137.2929Q62.71186,137.22792,62.7528,137.16664Q62.79374,137.10537,62.84048,137.04841Q62.88723,136.99145,62.93934,136.93934Q62.99145,136.88723,63.04841,136.84048Q63.105373,136.79374,63.166645,136.75279Q63.227916,136.71185,63.292905,136.67712Q63.357894,136.64238,63.425975,136.61418Q63.494056,136.58598,63.564573,136.56459Q63.63509,136.5432,63.707365,136.52882Q63.779639,136.51445,63.852974,136.50722Q63.9263097,136.5,64,136.5Q64.0736903,136.5,64.147026,136.50722Q64.220361,136.51445,64.292635,136.52882Q64.36491,136.5432,64.435427,136.56459Q64.505944,136.58598,64.574025,136.61418Q64.642106,136.64238,64.707095,136.67712Q64.772084,136.71185,64.833355,136.75279Q64.894627,136.79374,64.95159,136.84048Q65.00855,136.88723,65.06066,136.93934Q65.11277,136.99145,65.15952,137.04841Q65.20626,137.10537,65.2472,137.16664Q65.28814,137.22792,65.32288,137.2929Q65.35762,137.35789,65.38582,137.42597Q65.41402,137.49406,65.43541,137.56457Q65.4568,137.63509,65.47118,137.70736Q65.48555,137.77964,65.49278,137.85297Q65.5,137.92631,65.5,138ZM65.5,132Q65.5,132.0736903,65.49278,132.147026Q65.48555,132.220361,65.47118,132.292635Q65.4568,132.36491,65.43541,132.435427Q65.41402,132.505944,65.38582,132.574025Q65.35762,132.642106,65.32288,132.707095Q65.28814,132.772084,65.2472,132.833355Q65.20626,132.894627,65.15952,132.95159Q65.11277,133.00855,65.06066,133.06066Q65.00855,133.11277,64.95159,133.15952Q64.894627,133.20626,64.833355,133.2472Q64.772084,133.28814,64.707095,133.32288Q64.642106,133.35762,64.574025,133.38582Q64.505944,133.41402,64.435427,133.43541Q64.36491,133.4568,64.292635,133.47118Q64.220361,133.48555,64.147026,133.49278Q64.0736903,133.5,64,133.5Q63.9263097,133.5,63.852974,133.49278Q63.779639,133.48555,63.707365,133.47118Q63.63509,133.4568,63.564573,133.43541Q63.494056,133.41402,63.425975,133.38582Q63.357894,133.35762,63.292905,133.32288Q63.227916,133.28814,63.166645,133.2472Q63.105373,133.20626,63.04841,133.15952Q62.99145,133.11277,62.93934,133.06066Q62.88723,133.00855,62.84048,132.95159Q62.79374,132.894627,62.7528,132.833355Q62.71186,132.772084,62.67712,132.707095Q62.64238,132.642106,62.61418,132.574025Q62.58598,132.505944,62.56459,132.435427Q62.5432,132.36491,62.52882,132.292635Q62.51445,132.220361,62.50722,132.147026Q62.5,132.0736903,62.5,132Q62.5,131.9263097,62.50722,131.852974Q62.51445,131.779639,62.52882,131.707365Q62.5432,131.63509,62.56459,131.564573Q62.58598,131.494056,62.61418,131.425975Q62.64238,131.357894,62.67712,131.292905Q62.71186,131.227916,62.7528,131.166645Q62.79374,131.105373,62.84048,131.04841Q62.88723,130.99145,62.93934,130.93934Q62.99145,130.88723,63.04841,130.84048Q63.105373,130.79374,63.166645,130.7528Q63.227916,130.71186,63.292905,130.67712Q63.357894,130.64238,63.425975,130.61418Q63.494056,130.58598,63.564573,130.56459Q63.63509,130.5432,63.707365,130.52882Q63.779639,130.51445,63.852974,130.50722Q63.9263097,130.5,64,130.5Q64.0736903,130.5,64.147026,130.50722Q64.220361,130.51445,64.292635,130.52882Q64.36491,130.5432,64.435427,130.56459Q64.505944,130.58598,64.574025,130.61418Q64.642106,130.64238,64.707095,130.67712Q64.772084,130.71186,64.833355,130.7528Q64.894627,130.79374,64.95159,130.84048Q65.00855,130.88723,65.06066,130.93934Q65.11277,130.99145,65.15952,131.04841Q65.20626,131.105373,65.2472,131.166645Q65.28814,131.227916,65.32288,131.292905Q65.35762,131.357894,65.38582,131.425975Q65.41402,131.494056,65.43541,131.564573Q65.4568,131.63509,65.47118,131.707365Q65.48555,131.779639,65.49278,131.852974Q65.5,131.9263097,65.5,132Z" fill="#FFFFFF" fill-opacity="1"/></g><g style="mix-blend-mode:passthrough"><path d="M70.5,141L70.5,129L73.5,129L73.5,141L70.5,141ZM73.5,141Q73.5,141.0737,73.49278,141.147Q73.48555,141.2204,73.47118,141.2926Q73.4568,141.3649,73.43541,141.4354Q73.41402,141.5059,73.38582,141.574Q73.35762,141.6421,73.32288,141.7071Q73.28814,141.7721,73.2472,141.8334Q73.20626,141.8946,73.15952,141.95159999999998Q73.11277,142.0086,73.06066,142.0607Q73.00855,142.1128,72.95159,142.1595Q72.894627,142.2063,72.833355,142.2472Q72.772084,142.2881,72.707095,142.3229Q72.642106,142.3576,72.574025,142.3858Q72.505944,142.414,72.435427,142.4354Q72.36491,142.4568,72.292635,142.4712Q72.220361,142.4856,72.147026,142.4928Q72.0736903,142.5,72,142.5Q71.9263097,142.5,71.852974,142.4928Q71.779639,142.4856,71.707365,142.4712Q71.63509,142.4568,71.564573,142.4354Q71.494056,142.414,71.425975,142.3858Q71.357894,142.3576,71.292905,142.3229Q71.227916,142.2881,71.166645,142.2472Q71.105373,142.2063,71.04841,142.1595Q70.99145,142.1128,70.93934,142.0607Q70.88723,142.0086,70.84048,141.95159999999998Q70.79374,141.8946,70.7528,141.8334Q70.71186,141.7721,70.67712,141.7071Q70.64238,141.6421,70.61418,141.574Q70.58598,141.5059,70.56459,141.4354Q70.5432,141.3649,70.52882,141.2926Q70.51445,141.2204,70.50722,141.147Q70.5,141.0737,70.5,141Q70.5,140.9263,70.50722,140.853Q70.51445,140.7796,70.52882,140.7074Q70.5432,140.6351,70.56459,140.5646Q70.58598,140.4941,70.61418,140.426Q70.64238,140.3579,70.67712,140.2929Q70.71186,140.2279,70.7528,140.1666Q70.79374,140.1054,70.84048,140.04840000000002Q70.88723,139.9914,70.93934,139.9393Q70.99145,139.8872,71.04841,139.8405Q71.105373,139.7937,71.166645,139.7528Q71.227916,139.7119,71.292905,139.6771Q71.357894,139.6424,71.425975,139.6142Q71.494056,139.586,71.564573,139.5646Q71.63509,139.5432,71.707365,139.5288Q71.779639,139.5144,71.852974,139.5072Q71.9263097,139.5,72,139.5Q72.0736903,139.5,72.147026,139.5072Q72.220361,139.5144,72.292635,139.5288Q72.36491,139.5432,72.435427,139.5646Q72.505944,139.586,72.574025,139.6142Q72.642106,139.6424,72.707095,139.6771Q72.772084,139.7119,72.833355,139.7528Q72.894627,139.7937,72.95159,139.8405Q73.00855,139.8872,73.06066,139.9393Q73.11277,139.9914,73.15952,140.04840000000002Q73.20626,140.1054,73.2472,140.1666Q73.28814,140.2279,73.32288,140.2929Q73.35762,140.3579,73.38582,140.426Q73.41402,140.4941,73.43541,140.5646Q73.4568,140.6351,73.47118,140.7074Q73.48555,140.7796,73.49278,140.853Q73.5,140.9263,73.5,141ZM73.5,129Q73.5,129.0736903,73.49278,129.147026Q73.48555,129.220361,73.47118,129.292635Q73.4568,129.36491,73.43541,129.435427Q73.41402,129.505944,73.38582,129.574025Q73.35762,129.642106,73.32288,129.707095Q73.28814,129.772084,73.2472,129.833355Q73.20626,129.894627,73.15952,129.95159Q73.11277,130.00855,73.06066,130.06066Q73.00855,130.11277,72.95159,130.15952Q72.894627,130.20626,72.833355,130.2472Q72.772084,130.28814,72.707095,130.32288Q72.642106,130.35762,72.574025,130.38582Q72.505944,130.41402,72.435427,130.43541Q72.36491,130.4568,72.292635,130.47118Q72.220361,130.48555,72.147026,130.49278Q72.0736903,130.5,72,130.5Q71.9263097,130.5,71.852974,130.49278Q71.779639,130.48555,71.707365,130.47118Q71.63509,130.4568,71.564573,130.43541Q71.494056,130.41402,71.425975,130.38582Q71.357894,130.35762,71.292905,130.32288Q71.227916,130.28814,71.166645,130.2472Q71.105373,130.20626,71.04841,130.15952Q70.99145,130.11277,70.93934,130.06066Q70.88723,130.00855,70.84048,129.95159Q70.79374,129.894627,70.7528,129.833355Q70.71186,129.772084,70.67712,129.707095Q70.64238,129.642106,70.61418,129.574025Q70.58598,129.505944,70.56459,129.435427Q70.5432,129.36491,70.52882,129.292635Q70.51445,129.220361,70.50722,129.147026Q70.5,129.0736903,70.5,129Q70.5,128.9263097,70.50722,128.852974Q70.51445,128.779639,70.52882,128.707365Q70.5432,128.63509,70.56459,128.564573Q70.58598,128.494056,70.61418,128.425975Q70.64238,128.357894,70.67712,128.292905Q70.71186,128.227916,70.7528,128.166645Q70.79374,128.105373,70.84048,128.04841Q70.88723,127.99145,70.93934,127.93934Q70.99145,127.88723,71.04841,127.84048Q71.105373,127.79374,71.166645,127.7528Q71.227916,127.71186,71.292905,127.67712Q71.357894,127.64238,71.425975,127.61418Q71.494056,127.58598,71.564573,127.56459Q71.63509,127.5432,71.707365,127.52882Q71.779639,127.51445,71.852974,127.50722Q71.9263097,127.5,72,127.5Q72.0736903,127.5,72.147026,127.50722Q72.220361,127.51445,72.292635,127.52882Q72.36491,127.5432,72.435427,127.56459Q72.505944,127.58598,72.574025,127.61418Q72.642106,127.64238,72.707095,127.67712Q72.772084,127.71186,72.833355,127.7528Q72.894627,127.79374,72.95159,127.84048Q73.00855,127.88723,73.06066,127.93934Q73.11277,127.99145,73.15952,128.04841Q73.20626,128.105373,73.2472,128.166645Q73.28814,128.227916,73.32288,128.292905Q73.35762,128.357894,73.38582,128.425975Q73.41402,128.494056,73.43541,128.564573Q73.4568,128.63509,73.47118,128.707365Q73.48555,128.779639,73.49278,128.852974Q73.5,128.9263097,73.5,129Z" fill="#FFFFFF" fill-opacity="1"/></g><g style="mix-blend-mode:passthrough"><path d="M77.5,138L77.5,132L80.5,132L80.5,138L77.5,138ZM80.5,138Q80.5,138.07369,80.49278,138.14703Q80.48555,138.22036,80.47118,138.29263Q80.4568,138.36491,80.43541,138.43543Q80.41402,138.50594,80.38582,138.57402Q80.35762,138.64211,80.32288,138.70709Q80.28814,138.77208,80.2472,138.83335Q80.20626,138.89463,80.15952,138.95159Q80.11277,139.00855,80.06066,139.06066Q80.00855,139.11277,79.95159,139.15952Q79.894627,139.20626,79.833355,139.2472Q79.772084,139.28814,79.707095,139.32288Q79.642106,139.35762,79.574025,139.38582Q79.505944,139.41402,79.435427,139.43541Q79.36491,139.4568,79.292635,139.47118Q79.220361,139.48555,79.147026,139.49278Q79.0736903,139.5,79,139.5Q78.9263097,139.5,78.852974,139.49278Q78.779639,139.48555,78.707365,139.47118Q78.63509,139.4568,78.564573,139.43541Q78.494056,139.41402,78.425975,139.38582Q78.357894,139.35762,78.292905,139.32288Q78.227916,139.28814,78.166645,139.2472Q78.105373,139.20626,78.04841,139.15952Q77.99145,139.11277,77.93934,139.06066Q77.88723,139.00855,77.84048,138.95159Q77.79374,138.89463,77.7528,138.83335Q77.71186,138.77208,77.67712,138.70709Q77.64238,138.64211,77.61418,138.57402Q77.58598,138.50594,77.56459,138.43543Q77.5432,138.36491,77.52882,138.29263Q77.51445,138.22036,77.50722,138.14703Q77.5,138.07369,77.5,138Q77.5,137.92631,77.50722,137.85297Q77.51445,137.77964,77.52882,137.70736Q77.5432,137.63509,77.56459,137.56457Q77.58598,137.49406,77.61418,137.42597Q77.64238,137.35789,77.67712,137.2929Q77.71186,137.22792,77.7528,137.16664Q77.79374,137.10537,77.84048,137.04841Q77.88723,136.99145,77.93934,136.93934Q77.99145,136.88723,78.04841,136.84048Q78.105373,136.79374,78.166645,136.75279Q78.227916,136.71185,78.292905,136.67712Q78.357894,136.64238,78.425975,136.61418Q78.494056,136.58598,78.564573,136.56459Q78.63509,136.5432,78.707365,136.52882Q78.779639,136.51445,78.852974,136.50722Q78.9263097,136.5,79,136.5Q79.0736903,136.5,79.147026,136.50722Q79.220361,136.51445,79.292635,136.52882Q79.36491,136.5432,79.435427,136.56459Q79.505944,136.58598,79.574025,136.61418Q79.642106,136.64238,79.707095,136.67712Q79.772084,136.71185,79.833355,136.75279Q79.894627,136.79374,79.95159,136.84048Q80.00855,136.88723,80.06066,136.93934Q80.11277,136.99145,80.15952,137.04841Q80.20626,137.10537,80.2472,137.16664Q80.28814,137.22792,80.32288,137.2929Q80.35762,137.35789,80.38582,137.42597Q80.41402,137.49406,80.43541,137.56457Q80.4568,137.63509,80.47118,137.70736Q80.48555,137.77964,80.49278,137.85297Q80.5,137.92631,80.5,138ZM80.5,132Q80.5,132.0736903,80.49278,132.147026Q80.48555,132.220361,80.47118,132.292635Q80.4568,132.36491,80.43541,132.435427Q80.41402,132.505944,80.38582,132.574025Q80.35762,132.642106,80.32288,132.707095Q80.28814,132.772084,80.2472,132.833355Q80.20626,132.894627,80.15952,132.95159Q80.11277,133.00855,80.06066,133.06066Q80.00855,133.11277,79.95159,133.15952Q79.894627,133.20626,79.833355,133.2472Q79.772084,133.28814,79.707095,133.32288Q79.642106,133.35762,79.574025,133.38582Q79.505944,133.41402,79.435427,133.43541Q79.36491,133.4568,79.292635,133.47118Q79.220361,133.48555,79.147026,133.49278Q79.0736903,133.5,79,133.5Q78.9263097,133.5,78.852974,133.49278Q78.779639,133.48555,78.707365,133.47118Q78.63509,133.4568,78.564573,133.43541Q78.494056,133.41402,78.425975,133.38582Q78.357894,133.35762,78.292905,133.32288Q78.227916,133.28814,78.166645,133.2472Q78.105373,133.20626,78.04841,133.15952Q77.99145,133.11277,77.93934,133.06066Q77.88723,133.00855,77.84048,132.95159Q77.79374,132.894627,77.7528,132.833355Q77.71186,132.772084,77.67712,132.707095Q77.64238,132.642106,77.61418,132.574025Q77.58598,132.505944,77.56459,132.435427Q77.5432,132.36491,77.52882,132.292635Q77.51445,132.220361,77.50722,132.147026Q77.5,132.0736903,77.5,132Q77.5,131.9263097,77.50722,131.852974Q77.51445,131.779639,77.52882,131.707365Q77.5432,131.63509,77.56459,131.564573Q77.58598,131.494056,77.61418,131.425975Q77.64238,131.357894,77.67712,131.292905Q77.71186,131.227916,77.7528,131.166645Q77.79374,131.105373,77.84048,131.04841Q77.88723,130.99145,77.93934,130.93934Q77.99145,130.88723,78.04841,130.84048Q78.105373,130.79374,78.166645,130.7528Q78.227916,130.71186,78.292905,130.67712Q78.357894,130.64238,78.425975,130.61418Q78.494056,130.58598,78.564573,130.56459Q78.63509,130.5432,78.707365,130.52882Q78.779639,130.51445,78.852974,130.50722Q78.9263097,130.5,79,130.5Q79.0736903,130.5,79.147026,130.50722Q79.220361,130.51445,79.292635,130.52882Q79.36491,130.5432,79.435427,130.56459Q79.505944,130.58598,79.574025,130.61418Q79.642106,130.64238,79.707095,130.67712Q79.772084,130.71186,79.833355,130.7528Q79.894627,130.79374,79.95159,130.84048Q80.00855,130.88723,80.06066,130.93934Q80.11277,130.99145,80.15952,131.04841Q80.20626,131.105373,80.2472,131.166645Q80.28814,131.227916,80.32288,131.292905Q80.35762,131.357894,80.38582,131.425975Q80.41402,131.494056,80.43541,131.564573Q80.4568,131.63509,80.47118,131.707365Q80.48555,131.779639,80.49278,131.852974Q80.5,131.9263097,80.5,132Z" fill="#FFFFFF" fill-opacity="1"/></g></g></g><g style="mix-blend-mode:passthrough"><path d="M132.7666,147.6562Q134.25098,147.6562,134.92969,146.123L137.07319999999999,147.3633Q136.83887,148.1201,136.2627,148.7598Q135.68652,149.3945,134.82715,149.7754Q133.96777,150.1562,132.9082,150.1562Q131.44824,150.1562,130.24219,149.4385Q129.03613,148.7207,128.32812,147.4072Q127.625,146.0889,127.625,144.37012Q127.625,142.64648,128.32812,141.33789Q129.03613,140.0293,130.24219,139.31152Q131.44824,138.59375,132.9082,138.59375Q133.96777,138.59375,134.82715,138.97461Q135.68652,139.35059,136.2627,139.99023Q136.83887,140.625,137.07319999999999,141.38672L134.92969,142.62695Q134.25098,141.09375,132.7666,141.09375Q132.03418,141.09375,131.43848,141.48438Q130.84766,141.875,130.49609,142.62207Q130.14453,143.36426,130.14453,144.37012Q130.14453,145.37109,130.49609,146.123Q130.84766,146.875,131.43848,147.2656Q132.03418,147.6562,132.7666,147.6562ZM137.625,146.0938Q137.625,144.86816,138.1865,143.94531Q138.7529,143.01758,139.6953,142.52441Q140.6377,142.03125,141.7119,142.03125Q142.791,142.03125,143.7236,142.52441Q144.6611,143.01758,145.2129,143.94531Q145.7695,144.86816,145.7695,146.0938Q145.7695,147.3291,145.2129,148.252Q144.6611,149.1699,143.7334,149.6631Q142.8057,150.1562,141.7119,150.1562Q140.623,150.1562,139.6855,149.6631Q138.7529,149.1699,138.1865,148.252Q137.625,147.3291,137.625,146.0938ZM140.1445,146.0986Q140.1445,146.9873,140.5889,147.5098Q141.0332,148.0273,141.707,148.0273Q142.3662,148.0273,142.8057,147.5098Q143.25,146.9873,143.25,146.0986Q143.25,145.20996,142.8057,144.6875Q142.3662,144.16016,141.707,144.16016Q141.0332,144.16016,140.5889,144.6875Q140.1445,145.20996,140.1445,146.0986ZM152.293,138.4375L154.8125,138.4375L154.8125,150L152.5469,150Q152.5469,149.3164,152.459,148.8379Q152.0391,149.4971,151.4385,149.8291Q150.8379,150.1562,150.0957,150.1562Q149.1533,150.1562,148.377,149.6729Q147.6006,149.1846,147.1416,148.2666Q146.6875,147.3486,146.6875,146.0938Q146.6875,144.82422,147.1416,143.90625Q147.6006,142.9834,148.3721,142.50977Q149.1484,142.03125,150.0908,142.03125Q151.4971,142.03125,152.293,143.08594L152.293,138.4375ZM150.7451,148.0273Q151.3896,148.0273,151.8389,147.5146Q152.293,147.002,152.293,146.0498Q152.293,145.1123,151.8486,144.63867Q151.4043,144.16016,150.7451,144.16016Q150.0566,144.16016,149.6318,144.66797Q149.207,145.1709,149.207,146.0498Q149.207,146.9434,149.6318,147.4854Q150.0566,148.0273,150.7451,148.0273ZM160.0078,142.03125Q161.0576,142.03125,161.8633,142.46582Q162.6738,142.89551,163.1182,143.70605Q163.5625,144.5166,163.5625,145.59082Q163.5625,146.0498,163.4746,146.5625L158.5771,146.5625Q158.7383,147.26069999999999,159.1387,147.6465Q159.5391,148.0273,160.11520000000002,148.0273Q160.5889,148.0273,160.9648,147.7832Q161.3457,147.5391,161.5215,147.0654L163.2793,148.2178Q162.957,149.1455,162.0537,149.6533Q161.1504,150.1562,160.0225,150.1562Q158.9873,150.1562,158.0791,149.6924Q157.1758,149.2285,156.6191,148.3057Q156.0625,147.3779,156.0625,146.0645Q156.0625,144.76074,156.6191,143.85254Q157.1758,142.93945,158.0742,142.48535Q158.9727,142.03125,160.0078,142.03125ZM159.9395,144.16016Q159.4365,144.16016,159.085,144.38477Q158.7383,144.60449,158.5771,145L161.1211,145Q161.0576,144.58984,160.7305,144.375Q160.4082,144.16016,159.9395,144.16016ZM175.96,144.12109Q177.625,144.83398,177.625,146.6943Q177.625,148.2471,176.5068,149.126Q175.3936,150,173.4355,150L168.875,150L168.875,138.75L173.0254,138.75Q174.7734,138.75,175.8965,139.55566Q177.0195,140.36133,177.0195,141.89941Q177.0195,143.39355,175.96,144.12109ZM171.3945,140.87891L171.3945,143.18359L172.8936,143.18359Q173.6309,143.18359,174.0654,142.84668Q174.5,142.50977,174.5,141.95312Q174.5,141.4209,174.08010000000002,141.15234Q173.6602,140.87891,172.8936,140.87891L171.3945,140.87891ZM173.3623,147.8711Q174.1875,147.8711,174.6465,147.5439Q175.1055,147.2168,175.1055,146.6064Q175.1055,146.001,174.6367,145.65918Q174.1729,145.3125,173.3477,145.3125L171.3945,145.3125L171.3945,147.8711L173.3623,147.8711ZM181.707,150L179.1875,150L179.1875,138.4375L181.707,138.4375L181.707,150ZM182.9375,146.0938Q182.9375,144.86816,183.499,143.94531Q184.0654,143.01758,185.0078,142.52441Q185.9502,142.03125,187.0244,142.03125Q188.1035,142.03125,189.0361,142.52441Q189.9736,143.01758,190.5254,143.94531Q191.082,144.86816,191.082,146.0938Q191.082,147.3291,190.5254,148.252Q189.9736,149.1699,189.04590000000002,149.6631Q188.1182,150.1562,187.0244,150.1562Q185.9355,150.1562,184.998,149.6631Q184.0654,149.1699,183.499,148.252Q182.9375,147.3291,182.9375,146.0938ZM185.457,146.0986Q185.457,146.9873,185.9014,147.5098Q186.3457,148.0273,187.0195,148.0273Q187.6787,148.0273,188.1182,147.5098Q188.5625,146.9873,188.5625,146.0986Q188.5625,145.20996,188.1182,144.6875Q187.6787,144.16016,187.0195,144.16016Q186.3457,144.16016,185.9014,144.6875Q185.457,145.20996,185.457,146.0986ZM196.0381,148.0273Q196.4873,148.0273,196.79489999999998,147.8271Q197.10250000000002,147.627,197.3418,147.2461L199.1875,148.3008Q198.8262,149.2041,197.9717,149.6826Q197.1172,150.1562,196.0381,150.1562Q195.0029,150.1562,194.08010000000002,149.7021Q193.1572,149.248,192.5762,148.3301Q192,147.4072,192,146.0938Q192,144.77539,192.5762,143.85742Q193.1572,142.93945,194.08010000000002,142.48535Q195.0029,142.03125,196.0381,142.03125Q197.1172,142.03125,197.9717,142.50977Q198.8262,142.98828,199.1875,143.88672L197.3418,144.95605Q197.0879,144.57031,196.7803,144.36523Q196.4727,144.16016,196.0381,144.16016Q195.3447,144.16016,194.9297,144.69727Q194.5195,145.22949,194.5195,146.0986Q194.5195,146.9678,194.9297,147.5Q195.3447,148.0273,196.0381,148.0273ZM205.3887,145.25391L208.4941,150L205.584,150L203.7529,147.0996L202.6445,148.3203L202.6445,150L200.125,150L200.125,138.4375L202.6445,138.4375L202.6445,145.36133L205.33010000000002,142.1875L208.1328,142.1875L205.3887,145.25391ZM212.0195,150L209.5,150L209.5,138.4375L212.0195,138.4375L212.0195,150ZM219.207,142.1875L221.7852,142.1875L218.35250000000002,150.791Q217.76659999999998,152.2754,216.9414,152.9346Q216.1162,153.5938,214.94920000000002,153.5938Q214.3486,153.5938,213.8213,153.4229Q213.2988,153.252,212.9375,152.9541L213.88479999999998,151.1182Q214.39260000000002,151.4648,214.91989999999998,151.4648Q215.39839999999998,151.4648,215.6963,151.1865Q215.999,150.9082,216.37009999999998,150.1123L212.9521,142.1875L215.667,142.1875L217.542,147.124L219.207,142.1875Z" fill="#FFFFFF" fill-opacity="1"/></g></g><g style="mix-blend-mode:passthrough"><g style="mix-blend-mode:passthrough" filter="url(#master_svg2_31_887)"><rect x="144" y="154" width="88" height="41" rx="15" fill="#9900FF" fill-opacity="0.699999988079071"/></g><g style="mix-blend-mode:passthrough"><path d="M170.52995,166Q172.66536,166,174.4036,166.87891Q176.1419,167.75781,177.151,169.45052Q178.1667,171.13672,178.1667,173.4805Q178.1667,175.8177,177.151,177.5169Q176.1419,179.2161,174.4102,180.1081Q172.6849,181,170.52995,181L165.25,181L165.25,166L170.52995,166ZM170.16536,178.1615Q172.45703,178.1615,173.62891,176.944Q174.8073,175.7266,174.8073,173.4805Q174.8073,171.25391,173.6224,170.04948Q172.4375,168.83854,170.16536,168.83854L168.60938,168.83854L168.60938,178.1615L170.16536,178.1615ZM179.8333,173.4935Q179.8333,171.13021,180.7708,169.38542Q181.7148,167.64062,183.3359,166.71615Q184.9635,165.79167,186.9297,165.79167Q188.8958,165.79167,190.5104,166.71615Q192.125,167.64062,193.0755,169.38542Q194.026,171.13021,194.026,173.4935Q194.026,175.8633,193.0755,177.6146Q192.125,179.3594,190.5104,180.2839Q188.8958,181.2083,186.9297,181.2083Q184.944,181.2083,183.3294,180.2839Q181.7148,179.3594,180.7708,177.6146Q179.8333,175.8633,179.8333,173.4935ZM183.5833,173.4805Q183.5833,174.7956,184.0326,175.7982Q184.4818,176.7943,185.276,177.3346Q186.0768,177.875,187.1185,177.875Q188.1536,177.875,188.9609,177.3346Q189.7682,176.7943,190.2174,175.7982Q190.6667,174.7956,190.6667,173.4805Q190.6667,172.1849,190.2174,171.19531Q189.7682,170.19922,188.9609,169.66537Q188.1536,169.125,187.1185,169.125Q186.0768,169.125,185.276,169.66537Q184.4818,170.19922,184.0326,171.19531Q183.5833,172.1849,183.5833,173.4805ZM202.5221,177.875Q204.50130000000001,177.875,205.4062,175.8307L208.2643,177.4844Q207.9518,178.4935,207.1836,179.3464Q206.4154,180.1927,205.2695,180.7005Q204.12369999999999,181.2083,202.7109,181.2083Q200.7643,181.2083,199.1562,180.25130000000001Q197.5482,179.2943,196.6042,177.543Q195.6667,175.7852,195.6667,173.4935Q195.6667,171.19531,196.6042,169.45052Q197.5482,167.70573,199.1562,166.7487Q200.7643,165.79167,202.7109,165.79167Q204.12369999999999,165.79167,205.2695,166.29948Q206.4154,166.80078,207.1836,167.65365Q207.9518,168.5,208.2643,169.51562L205.4062,171.16927Q204.50130000000001,169.125,202.5221,169.125Q201.5456,169.125,200.75130000000001,169.64583Q199.9635,170.16667,199.4948,171.16276Q199.026,172.15234,199.026,173.4935Q199.026,174.8281,199.4948,175.8307Q199.9635,176.8333,200.75130000000001,177.3542Q201.5456,177.875,202.5221,177.875ZM220.25,176.50130000000001Q220.25,178.1745,219.40359999999998,179.2292Q218.56380000000001,180.2839,217.2943,180.7461Q216.0247,181.2083,214.6901,181.2083Q212.6849,181.2083,211.0117,180.2057Q209.3451,179.2031,208.7917,177.3086L211.4479,175.707Q211.9102,176.7422,212.7956,177.3086Q213.68099999999998,177.875,214.8854,177.875Q215.78390000000002,177.875,216.3372,177.5495Q216.8906,177.2174,216.8906,176.5794Q216.8906,176.0586,216.5195,175.7201Q216.1549,175.3815,215.6081,175.1602Q215.0677,174.93880000000001,214.0651,174.6654Q212.6068,174.24869999999999,211.6758,173.832Q210.75130000000001,173.4089,210.0807,172.5625Q209.4167,171.71615,209.4167,170.34245Q209.4167,168.81901,210.1979,167.80339Q210.9792,166.78776,212.2422,166.29297Q213.5052,165.79167,214.957,165.79167Q216.8646,165.79167,218.2904,166.63802Q219.7227,167.47787,220.1393,169.03385L217.4961,170.62891Q217.1576,169.71745,216.4479,169.21615Q215.7383,168.70833,214.7292,168.70833Q213.8568,168.70833,213.3164,169.10547Q212.776,169.49609,212.776,170.11458Q212.776,170.58984,213.1276,170.92188Q213.4857,171.2474,214.013,171.45573Q214.5404,171.66406,215.5104,171.97005000000001Q217.0078,172.42578,217.93880000000001,172.86849Q218.8698,173.3047,219.5599,174.1966Q220.25,175.082,220.25,176.50130000000001Z" fill="#FFFFFF" fill-opacity="1"/></g></g></g></svg>